<svg xmlns="http://www.w3.org/2000/svg" style="display: none;">
    <symbol id="main" viewBox="0 0 25 25">
        <path fill-rule="evenodd" clip-rule="evenodd" d="M7.52736 4.75953C6.76462 3.99679 5.52797 3.99679 4.76523 4.75953C4.00249 5.52228 4.00248 6.75892 4.76522 7.52166L6.5617 9.31814C8.31661 11.0731 8.31661 13.9183 6.5617 15.6732L4.7596 17.4753C3.99686 18.2381 3.99686 19.4747 4.7596 20.2375C5.52234 21.0002 6.759 21.0002 7.52174 20.2375L9.32601 18.4332C11.0797 16.6795 13.923 16.6795 15.6767 18.4332L17.471 20.2275C18.2338 20.9902 19.4704 20.9902 20.2332 20.2275C20.9959 19.4647 20.9959 18.2281 20.2332 17.4654L18.4361 15.6682C16.6839 13.9161 16.6839 11.0753 18.436 9.32313L20.2275 7.53164C20.9903 6.7689 20.9903 5.53225 20.2275 4.76951C19.4648 4.00677 18.2281 4.00677 17.4654 4.76951L15.6739 6.561C13.9218 8.31315 11.081 8.31315 9.32882 6.561L7.52736 4.75953Z" fill="currentColor"/>
        <ellipse cx="12.4999" cy="2.09375" rx="2.09375" ry="2.09375" fill="currentColor"/>
        <ellipse cx="22.9062" cy="12.5" rx="2.09375" ry="2.09375" fill="currentColor"/>
        <ellipse cx="12.4999" cy="22.9062" rx="2.09375" ry="2.09375" fill="currentColor"/>
        <ellipse cx="2.09375" cy="12.5" rx="2.09375" ry="2.09375" fill="currentColor"/>
    </symbol>
</svg>
